PathFileType	4	(X/Y/Z)	G:\Shared drives\HIT\Data\HapticPilot\Subject1\Edited\LHJC1.trc
DataRate	CameraRate	NumFrames	NumMarkers	Units	OrigDataRate	OrigDataStartFrame	OrigNumFrames
50.00	50.00	       8	38	mm	50.00	599	       684
Frame#	Time	r_knee			r_shank(antsup)			r_ankle			r_calc			r_5meta			r_toe			L_knee			L_shank(ant_sup)			L_ankle			L_calc			L_5meta			L_toe			r_mknee			r_mankle			L_mknee			L_mankle			r_sh2			r_sh3			r_sh4			L_sh2			L_sh3			r_thigh1			r_thigh2			r_thigh3			r_thigh4			r_thigh5			L_thigh1			L_thigh2			L_thigh3			L_thigh4			r.ASIS			r.PSIS			L.ASIS			L.PSIS			C7			R_Shoulder			L_Shoulder			Sternum			
		X1	Y1	Z1	X2	Y2	Z2	X3	Y3	Z3	X4	Y4	Z4	X5	Y5	Z5	X6	Y6	Z6	X7	Y7	Z7	X8	Y8	Z8	X9	Y9	Z9	X10	Y10	Z10	X11	Y11	Z11	X12	Y12	Z12	X13	Y13	Z13	X14	Y14	Z14	X15	Y15	Z15	X16	Y16	Z16	X17	Y17	Z17	X18	Y18	Z18	X19	Y19	Z19	X20	Y20	Z20	X21	Y21	Z21	X22	Y22	Z22	X23	Y23	Z23	X24	Y24	Z24	X25	Y25	Z25	X26	Y26	Z26	X27	Y27	Z27	X28	Y28	Z28	X29	Y29	Z29	X30	Y30	Z30	X31	Y31	Z31	X32	Y32	Z32	X33	Y33	Z33	X34	Y34	Z34	X35	Y35	Z35	X36	Y36	Z36	X37	Y37	Z37	X38	Y38	Z38	

599	11.960	768.79559	249.42233	570.26410	785.76575	251.52014	480.09488	710.05280	283.36230	111.00774	621.03198	332.72635	68.63980	817.61658	251.49567	40.27573	861.44647	311.14160	74.20417	805.24847	819.56000	841.87140	849.05695	904.97321	766.06787	798.59155	1111.90210	483.79813	751.30890	1083.31787	398.31036	895.73297	1220.20239	482.63156	956.69946	1171.73584	482.49527	757.87915	377.39188	561.58618	724.09955	378.56418	119.10460	877.43823	742.09229	769.44971	861.27856	1052.27344	440.57867	776.02136	260.95239	361.04941	711.12421	236.85629	482.57864	694.55664	239.42534	367.40436	761.76819	881.56921	762.58630	759.44702	961.32123	669.17426	802.06830	213.84105	898.28650	815.08533	224.28708	784.35077	774.94330	212.96556	745.38727	690.98944	187.53833	874.25098	710.56232	213.48711	761.17633	772.08527	631.84607	1050.87439	829.27094	730.59625	971.87152	668.60760	646.31854	997.56940	730.15137	733.83002	913.98004	810.86017	239.20113	1086.57703	610.85248	267.92041	1132.99988	751.03607	476.06845	1166.66284	593.33069	342.09918	1152.28137	706.29926	306.11813	1634.84473	803.90930	155.82130	1595.60400	725.25201	493.91959	1599.21338	832.17920	331.31967	1542.66174	
600	11.980	769.48328	249.75214	570.26929	786.40143	251.76788	480.01077	710.03076	283.30225	110.98068	620.97034	332.59814	68.57028	817.57452	251.59854	40.29720	861.37360	311.22424	74.34195	793.63342	819.79602	834.53729	832.34296	905.31934	756.56299	768.26202	1108.81287	474.39435	717.91394	1078.98206	391.14307	863.44147	1217.96033	468.60538	925.52429	1170.44983	466.15570	757.72406	377.62897	561.35547	724.05963	378.51862	119.13269	862.98462	742.38489	760.15216	829.78455	1049.69250	429.31686	776.50165	261.24796	360.95297	711.75970	236.88484	482.45703	695.17590	239.33902	367.34882	745.37848	880.74146	756.32501	738.32605	959.38757	662.35980	803.12921	214.79048	898.10498	816.16351	225.20819	784.35455	776.24005	213.62428	745.52258	692.62634	187.36157	874.44403	711.45850	213.74020	760.96021	769.83594	632.98505	1045.79565	822.99878	731.62695	963.93390	664.35736	645.88062	996.30682	723.17737	733.44727	910.57306	812.76917	240.38747	1085.78662	612.93750	267.97214	1133.86853	752.47168	477.34766	1166.10278	595.27405	342.52231	1153.37891	709.07538	305.42593	1635.03931	806.65759	155.23824	1595.46094	727.40533	493.24240	1599.64319	834.65576	331.00659	1542.57336	
601	12.000	769.81995	249.86858	570.18964	786.63989	251.76413	479.84579	709.96570	283.21381	110.93921	620.89172	332.62222	68.36776	817.58594	251.61061	40.34432	861.28955	311.18872	74.51922	780.21503	819.12567	826.21790	815.41522	904.18939	745.60004	738.49524	1104.28979	464.23517	685.56311	1072.68237	383.35156	832.23096	1214.34949	453.40900	894.50964	1167.39368	449.25708	757.70117	377.66629	561.17194	723.91956	378.43704	119.14222	849.19189	742.62170	750.84454	799.31757	1045.23840	417.90753	776.71924	261.29776	360.83401	712.07294	236.82393	482.32843	695.47229	239.21985	367.32407	728.48785	878.96240	749.34418	717.04584	956.57715	654.94574	803.95459	215.55943	898.06079	816.98999	225.95959	784.35309	777.20349	214.08049	745.54590	693.82532	187.49609	874.55432	712.54401	213.75841	761.10925	767.26544	634.15314	1040.48059	816.43506	732.51855	955.83447	660.22583	645.11737	994.80145	714.81976	732.36951	906.28418	814.32013	241.38142	1085.21558	615.10706	268.51749	1134.54797	754.16498	478.61212	1165.57361	597.03436	343.29587	1154.54529	711.58179	304.98697	1635.14722	809.37878	154.84525	1595.31982	729.71527	492.78098	1600.08838	836.98810	330.58899	1542.55017	
602	12.020	769.64301	249.78471	570.16827	786.31787	251.51842	479.74176	709.84827	283.11978	110.82552	620.78528	332.56296	68.22329	817.53467	251.61032	40.35545	861.16821	311.21500	74.62655	766.84174	817.41595	817.64655	798.33136	901.80151	734.40631	709.56146	1098.02527	454.06595	653.69135	1064.93896	375.73294	801.97180	1208.73645	438.14975	864.33398	1162.34814	432.62079	757.99585	377.56641	560.93811	723.79999	378.38718	119.04933	836.66309	740.88757	740.73639	769.27032	1038.85266	406.22592	776.34357	261.18146	360.69165	711.67322	236.83336	482.23560	695.00519	239.36320	367.15802	711.89874	875.86273	741.81622	696.21014	952.05750	646.92493	804.37964	215.87254	898.00244	817.52985	226.03148	784.18134	777.49213	214.28603	745.63586	694.35535	187.82603	874.77051	712.80029	214.09663	761.24023	765.50763	635.34882	1035.11218	809.65851	733.30548	947.24048	656.36725	644.19031	993.31104	706.56604	731.16663	901.54791	815.91040	242.08017	1084.75806	616.51971	269.36938	1135.47339	755.99426	479.60513	1165.13428	598.86536	344.24335	1155.41113	714.11853	304.63803	1635.19055	811.80920	154.70309	1595.09644	732.29126	492.53510	1600.43201	839.40955	330.31607	1542.44397	
603	12.040	769.26935	249.67471	570.19623	785.73181	251.19353	479.58859	709.71631	283.02634	110.72884	620.71307	332.50992	68.08484	817.52118	251.61325	40.34017	861.08624	311.13910	74.82747	754.42493	815.14679	809.10303	781.66364	898.66150	723.98560	681.49738	1089.90100	443.89032	622.84967	1055.28284	368.35822	772.22485	1201.08093	423.00500	834.77008	1155.22290	415.89554	758.03101	377.39301	560.75507	723.63507	378.28110	119.07175	819.59888	737.90295	731.38916	739.74615	1030.63745	394.99582	775.93359	260.99118	360.55869	711.10876	236.78229	482.07953	694.37982	239.41783	366.96329	695.97046	871.71985	734.44452	676.20959	946.48511	639.04004	804.70575	216.12679	898.10901	817.36786	226.03633	784.27783	777.20642	214.51039	745.79065	694.57562	188.31557	875.31415	712.65448	214.32454	761.64655	763.07544	636.43286	1029.40625	802.42133	733.39240	938.19135	652.15668	643.09003	991.31696	698.03259	729.14343	896.23096	817.41370	242.69975	1084.10046	618.34528	270.38699	1136.36218	757.90796	480.76450	1164.45520	600.75525	345.14569	1156.55444	716.50012	304.68140	1635.20166	813.96075	154.53564	1594.90979	734.99548	492.62003	1600.75500	841.71155	330.09070	1542.34802	
604	12.060	768.95361	249.60466	570.29938	785.42902	251.03598	479.55801	709.56659	282.91718	110.64912	620.67609	332.34045	68.02105	817.47931	251.67252	40.38172	860.93835	311.13086	74.99163	742.38507	812.46008	800.89172	765.63629	894.84082	713.72540	654.23041	1079.97461	433.86798	593.54541	1043.38367	360.98615	743.12238	1191.58679	407.64066	805.91467	1145.73645	399.46527	757.48322	377.24365	560.80292	723.17548	378.42816	119.10087	805.16620	733.47284	723.63910	711.46014	1020.49585	384.06305	775.71948	260.85931	360.57797	710.83386	236.50694	481.96970	694.58911	239.78784	366.58768	680.73401	867.16553	727.25427	656.77808	939.66998	631.23553	804.98468	216.59090	898.31873	817.41022	226.34618	784.51886	776.95770	214.71469	746.12463	694.49896	188.90579	875.76276	712.43329	214.70471	762.10626	760.10455	637.27460	1024.00781	795.54041	732.94269	930.07343	648.17340	641.77344	989.10718	689.42053	726.59314	891.18750	818.71985	243.48799	1083.14331	619.93188	271.18332	1137.18140	759.28247	481.95050	1163.41174	602.49841	346.08344	1157.44983	719.15222	304.84656	1635.38623	815.85986	154.42502	1594.80347	738.21912	492.84470	1601.05664	844.22827	330.01727	1542.31702	
605	12.080	768.63409	249.53583	570.35504	785.12970	250.89214	479.64807	709.45911	282.79630	110.59787	620.58142	332.25986	67.91983	817.47943	251.67438	40.39762	860.75922	311.11508	74.99947	730.10699	809.08264	793.58203	749.31812	890.50482	704.57684	627.97406	1068.76733	423.86234	565.33960	1030.01514	353.70807	714.55603	1180.78442	392.43921	778.04956	1135.85571	383.64120	756.40723	377.15118	560.78766	723.27509	378.05756	119.16096	801.13403	720.15912	720.39117	684.06128	1008.97382	373.66171	775.61365	260.76895	360.65067	710.57172	236.10132	481.91434	694.19885	238.65994	366.74200	665.65326	861.81995	720.23083	638.02563	932.14154	623.78925	805.22797	217.14679	898.52960	817.46533	226.83905	784.69495	776.96411	214.92525	746.38379	695.42328	187.47945	877.15161	712.54413	214.58113	762.58105	756.82129	638.08215	1018.70447	788.70709	732.44897	922.11963	643.81586	640.07898	986.74310	681.22650	724.18127	886.41754	819.98035	244.45528	1082.21326	621.31494	271.91528	1138.43372	761.11591	483.39307	1162.36157	604.25397	346.92102	1158.71643	721.71136	305.49588	1635.50916	817.70819	154.56274	1594.86877	741.71741	493.33014	1601.38159	846.70795	330.05560	1542.38037	
606	12.100	767.89374	249.44696	570.37006	784.53650	250.70294	479.77127	709.34454	282.76227	110.56110	620.51776	332.19821	67.83575	817.45074	251.73825	40.40874	860.79712	311.06323	75.38913	717.99182	805.25146	785.92517	734.19421	886.21234	693.78552	602.61102	1056.84351	414.14267	538.44727	1015.86957	346.73364	687.06665	1169.08264	377.68051	750.47192	1124.47278	368.82431	755.29047	376.99524	560.88629	723.14404	377.98871	119.18324	781.44403	723.95862	704.74677	657.81836	996.41339	363.63947	775.20050	260.64868	360.72958	709.92645	235.82726	481.88403	693.76648	238.50830	366.63446	650.66821	856.31671	713.60968	619.62701	924.28052	616.42572	805.57294	217.84151	898.65082	817.56049	227.32121	784.73944	777.17499	215.14063	746.60339	695.86145	187.69133	877.45105	712.74524	214.51138	762.82410	753.27997	638.70935	1013.31097	780.88300	731.75629	914.28497	639.64587	638.52655	984.22241	673.42761	721.61121	881.68011	820.96912	245.36694	1081.47144	622.71820	273.05652	1139.51233	762.69598	484.61697	1161.43970	606.16541	347.80646	1159.88354	724.27203	306.47037	1635.66663	819.65485	154.88504	1595.01367	745.57233	494.01648	1601.51990	849.06714	330.12363	1542.26611	
